P1
# CREATOR: GIMP PNM Filter Version 1.1
256 192
0000000000000000000000000000000000000000000000000000000000000000000000
0000000000000000000000000000000000000000000000000000000000000000000000
0000000000000000000000000000000000000000000000000000000000000000000000
0000000000000000000000000000000000000000000000000000000000000000000000
0000000000000000000000000000000000000000000000000000000000000000000000
0000000000000000000000000000000000000000000000000000000000000000000000
0000000000000000000000000000000000000000000000000000000000000000000000
0000000000000000000000000000000000000000000000000000000000000000000000
0000000000000000000000000000000000000000000000000000000000000000000000
0000000000000000000000000000000000000000000000000000000000000000000000
0000000000000000000000000000000000000000000000000000000000000000000000
0000000000000000000000000000000000000000000000000000000000000000000000
0000000000000000000000000000000000000000000000000000000000000000000000
0000000000000000000000000000000000000000000000000000000000000000000000
0000000000000000000000000000000000000000000000000000000000000000000000
0000000000000000000000000000000000000000000000000000000000000000000000
0000000000000000000000000000000000000000000000000000000000000000000000
0000000000000000000000000000000000000000000000000000000000000000000000
0000000000000000000000000000000000000000000000000000000000000000000000
0000000000000000000000000000000000000000000000000000000000000000000000
0000000000000000000000000000000000000000000000000000000000000000000000
0000000000000000000000000000000000000000000000000000000000000000000000
0000000000000000000000000000000000000000000000000000000000000000000000
0000000000000000000000000000000000000000000000000000000000000000000000
0000000000000000000000000000000000000000000000000000000000000000000000
0000000000000000000000000000000000000000000000000000000000000000000000
0000000000000000000000000000000000000000000000000000000000000000000000
0000000000000000000000000000000000000000000000000000000000000000000000
0000000000000000000000000000000000000000000000000000000000000000000000
0000000000000000000000000000000000000000000000000000000000000000000000
0000000000000000000000000000000000000000000000000000000000000000000000
0000000000000000000000000000000000000000000000000000000000000000000000
0000000000000000000000000000000000000000000000000000000000000000000000
0000000000000000000000000000000000000000000000000000000000000000000000
0000000000000000000000000000000000000000000000000000000000000000000000
0000000000000000000000000000000000000000000000000000000000000000000000
0000000000000000000000000000000000000000000000000000000000000000000000
0000000000000000000000000000000000000000000000000000000000000000000000
0000000000000000000000000000000000000000000000000000000000000000000000
0000000000000000000000000000000000000000000000000000000000000000000000
0000000000000000000000000000000000000000000000000000000000000000000000
0001110000000000000000000000000000000000000000000000000000000000000000
0000000000000000000000000000000000000000000000000000000000000000000000
0000000000000000000000000000000000000000000000000000000000000000000000
0000000000000000000000000000000000000000000000011111100000000000000000
0000000000000000000000000000000000000000000000000000000000000000000000
0000000000000000000000000000000000000000000000000000000000000000000000
0000000000000000000000000000000000000000000000000000000000000000000000
0000000000000000000000111111111000000000000000000000000000000000000000
0000000000000000000000000000000000000000000000000000000000000000000000
0000000000000000000000000000000000000000000000000000000000000000000000
0000000000000000000000000000000000000000000000000000000000000000000111
1111111100000000000000000000000000000000000000000000000000000000000000
0000000000000000000000000000000000000000000000000000000000000000000000
0000000000000000000000000000000000000000000000000000000000000000000000
0000000000000000000000000000000000000000001111111111110000000000000000
0000000000000000000000000000000000000000000000000000000000000000000000
0000000000000000000000000000000000000000000000000000000000000000000000
0000000000000000000000000000000000000000000000000000000000000000000000
0000000000000000001111111111111000000000000000000000000000000000000000
0000000000000000000000000000000000000000000000000000000000000000000000
0000000000000000000000000000000000000000000000000000000000000000000000
0000000000000000000000000000000000000000000000000000000000000000111111
1111111100000000000000000000000000000000000000000000000000000000000000
0000000000000000000000000000000000000000000000000000000000000000000000
0000000000000000000000000000000000000000000000000000000000000000000000
0000000000000000000000000000000000000001111111111111110000000000000000
0000000000000000000000000000000000000000000000000000000000000000000000
0000000000000000000000000000000000000000000000000000000000000000000000
0000000000000000000000000000000000000000000000000000000000000000000000
0000000000000001111111111111111000000000000000000000000000000000000000
0000000000000000000000000000000000000000000000000000000000000000000000
0000000000000000000000000000000000000000000000000000000000000000000000
0000000000000000000000000000000000000000000000000000000000000111111111
1111111000000000000000000000000000000000000000000000000000000000000000
0000000000000000000000000000000000000000000000000000000000000000000000
0000000000000000000000000000000000000000000000000000000000000000000000
0000000000000000000000000000000000000111111111111111100000000000000000
0000000000000000000000000000000000000000000000000000000000000000000000
0000000000000000000000000000000000000000000000000000000000000000000000
0000000000000000000000000000000000000000000000000000000000000000000000
0000000000000111111111111111110000000000000000000000000000000000000000
0000000000000000000000000000000000000000000000000000000000000000000000
0000000000000000000000000000000000000000000000000000000000000000000000
0000000000000000000000000000000000000000000000000000000000011111111111
1111110000000000000000000000000000000000000000000000000000000000000000
0000000000000000000000000000000000000000000000000000000000000000000000
0000000000000000000000000000000000000000000000000000000000000000000000
0000000000000000000000000000000000011111111111111111100000000000000000
0000000000000000000000000000000000000000000000000000000000000000000000
0000000000000000000000000000000000000000000000000000000000000000000000
0000000000000000000000000000000000000000000000000000000000000000000000
0000000000001111111111111111100000000000000000000000000000000000000000
0000000000000000000000000000000000000000000000000000000000000000000000
0000000000000000000000000000000000000000000000000000000000000000000000
0000000000000000000000000000000000000000000000000000000000111111111111
1111100000000000000000000000000000000000000000000000000000000000000000
0000000000000000000000000000000000000000000000000000000000000000000000
0000000000000000000000000000000000000000000000000000000000000000000000
0000000000000000000000000000000000111111111111111111000000000000000000
0000000000000000000000000000000000000000000000000000000000000000000000
0000000000000000000000000000000000000000000000000000000000000000000000
0000000000000000000000000000000000000000000000000000000000000000000000
0000000000111111111111111111000000000000000000000000000000000000000000
0000000000000000000000000000000000000000000000000000000000000000000000
0000000000000000000000000000000000000000000000000000000000000000000000
0000000000000000000000000000000000000000000000000000000011111111111111
1111000000000000000000000000000000000000000000000000000000000000000000
0000000000000000000000000000000000000000000000000000000000000000000000
0000000000000000000000000000000000000000000000000000000000000000000000
0000000000000000000000000000000011111111111111111110000000000000000000
0000000000000000000000000000000000000000000000000000000000000000000000
0000000000000000000000000000000000000000000000000000000000000000000000
0000000000000000000000000000000000000000000000000000000000000000000000
0000000001111111111111111110000000000000000000000000000000000000000000
0000000000000000000000000000000000000000000000000000000000000000000000
0000000000000000000000000000000000000000000000000000000000000000000000
0000000000000000000000000000000000000000000000000000000111111111111111
1111000000000000000000000000000000000000000000000000000000000000000000
0000000000000000000000000000000000000000000000000000000000000000000000
0000000000000000000000000000000000000000000000000000000000000000000000
0000000000000000000000000000000111111111111111111100000000000000000000
0000000000000000000000000000000000000000000000000000000000000000000000
0000000000000000000000000000000000000000000000000000000000000000000000
0000000000000000000000000000000000000000000000000000000000000000000000
0000000111111111111111111100000000000000000000000000000000000000000000
0000000000000000000000000000000000000000000000000000000000000000000000
0000000000000000000000000000000000000000000000000000000000000000000000
0000000000000000000000000000000000000000000000000000001111111111111111
1110000000000000000000000000000000000000000000000000000000000000000000
0000000000000000000000000000000000000000000000000000000000000000000000
0000000000000000000000000000000000000000000000000000000000000000000000
0000000000000000000000000000001111111111111111111000000000000000000000
0000000000000000000000000000000000000000000000000000000000000000000000
0000000000000000000000000000000000000000000000000000000000000000000000
0000000000000000000000000000000000000000000000000000000000000000000000
0000001111111111111111111000000000000000000000000000000000000000000000
0000000000000000000000000000000000000000000000000000000000000000000000
0000000000000000000000000000000000000000000000000000000000000000000000
0000000000000000000000000000000000000000000000000000011111111111111111
1100000000000000000000000000000000000000000000000000000000000000000000
0000000000000000000000000000000000000000000000000000000000000000000000
0000000000000000000000000000000000000000000000000000000000000000000000
0000000000000000000000000000011111111111111111110000000000000000000000
0000000000000000000000000000000000000000000000000000000000000000000000
0000000000000000000000000000000000000000000000000000000000000000000000
0000000000000000000000000000000000000000000000000000000000000000000000
0000001111111111111111110000000000000000000000000000000000000000000000
0000000000000000000000000000000000000000000000000000000000000000000000
0000000000000000000000000000000000000000000000000000000000000000000000
0000000000000000000000000000000000000000000000000000111111111111111111
1000000000000000000000000000000000000000000000000000000000000000000000
0000000000000000000000000000000000000000000000000000000000000000000000
0000000000000000000000000000000000000000000000000000000000000000000000
0000000000000000000000000000011111111111111111100000000000000000000000
0000000000000000000000000000000000000000000000000000000000000000000000
0000000000000000000000000000000000000000000000000000000000000000000000
0000000000000000000000000000000000000000000000000000000000000000000000
0000011111111111111111110000000000000000000000000000000000000000000000
0000000000000000000000000000000000000000000000000000000000000000000000
0000000000000000000000000000000000000000000000000000000000000000000000
0000000000000000000000000000000000000000000000000000111111111111111111
0000000000000000000000000000000000000000000000000000000000000000000000
0000000000000000000000000000000000000000000000000000000000000000000000
0000000000000000000000000000000000000000000000000000000000000000000000
0000000000000000000000000000111111111111111111000000000000000000000000
0000000000000000000000000000000000000000000000000000000000000000000000
0000000000000000000000000000000000000000000000000000000000000000000000
0000000000000000000000000000000000000000000000000000000000000000000000
0000011111111111111111100000000000000000000000000000000000000000000000
0000000000000000000000000000000000000000000000000000000000000000000000
0000000000000000000000000000000000000000000000000000000000000000000000
0000000000000000000000000000000000000000000000000001111111111111111110
0000000000000000000000000000000000000000000000000000000000000000000000
0000000000000000000000000000000000000000000000000000000000000000000000
0000000000000000000000000000000110000000000000000000000000000000000000
0000000000000000000000000000111111111111111111000000000000000000000000
0000000000000000000000000000000000000000000000000000000000000000000000
0000000000000000000000000000000000000000000000000000000000000000000000
0000000110000000000000000000000000000000000000000000000000000000000000
0000111111111111111111100000000000000000000000000000000000000000000000
0000000000000000000000000000000000000000000000000000000000000000000000
0000000000000000000000000000000000000000000000000000011100000000000000
0000000000000000000000000000000000000000000000000001111111111111111111
0000000000000000000000000000000000000000000000000000000000000000000000
0000000000000000000000000000000000000000000000000000000000000000000000
0000000000000000000000000110011000000000000000000000000000000000000000
0000000000000000000000000000111111111111111111100000000000000000000000
0000000000000000000000000000000000000000000000000000000000000000000000
0000000000000000000000000000000000000000000000000000000000000000000000
0111111000000000000000000000000000000000000000000000000000000000000000
0000011111111111111111110000000000000000000000000000000000000000000000
0000000000000000000000000000000000000000000000000000000000000000000000
0000000000000000000000000000000000000000000000000010000000000000000000
0000000000000000000000000000000000000000000000000000111111111111111111
1000000000000000000000000000000000000000000000000000000000000000000000
0000000000000000000000000000000000000000000000000000000000000000000001
0000000000000000000000000110000000000000000000000000000000000000000000
0000000000000000000000000000111111111111111111110000000000000000000000
0000000000000000000000000000000000000000000000000000000000000000000000
0000000000000000000000000000000000000000000101100000000000000000000000
1000000000000000000000000000000000000000000000000000000000000000000000
0000011111111111111111111000000000000000000000000000000000000000000000
0000000000000000000000000000000000000000000000000000000000000000000000
0000000000000000000011110000001111111100000010100000000000000000000000
0000000000000000000000000000000000000000000000000000011111111111111111
1100000000000000000000000000000000000000000000000000000000000000000000
0000000000000000000000000000000000000000000000000000000000000001111111
0000001111111111100111000000000000000000000000000000000000000000000000
0000000000000000000000000000001111111111111111111000000000000000000000
0000000000000000000000000000000000011101111100000000000000000000000000
0000000000000000000000000000000000000011101110100000111111111011111100
0000000000000000000000000000000000000000000000000000000000000000000000
0000000111011111111111111000000000000000000000000000000000000000000000
0000000110111110000000000000000000000000000000000000000000000000000000
0000000000000000001011100000111111111110111000000000000000000000000000
0000000000000000000000000000000000000000000000000000001110111111111111
1111000000000000000000000000000000000000000000000000111011110000000000
0000000001100000000000000000000000000000000000000000000000000001011111
1011111111111101111100000000000000000000000000000000000000000000000000
0000000000000000000000000000000111101111111111111111000000000000000000
0000000000000000000000000001111111100000000000000000000000000000000000
0000000000000000000000000000000000000000111111111001111111111111111000
0000000000000000000000000000000000000000000000000000000000000000000000
0000111111110111111111111111100000000000000000000000000000000000000000
0111111111000000000000000000010000000000000000000000000000000000000000
0000000000000001111111000011111111111110111100000000000000000000000000
0000000000000000000000000000000000000000000000000000111111101111111111
1111110000000000000000000000000000000000000000111111111000000000000001
1001110000000000000000000000000000000000000000000000000000000111111001
1000011101011111111110000000000000000000000000000000000000000000000000
0000000000000000000000000000011111111011111111111111110000000000000000
0000000000000000000001111111110000000000000011110010000000000000000000
0000000000000000000000000000000000001111100101100000000000011111111100
0000000000000000000000000000000000000000000000000000000000000000000000
0000011111111101111111111111111000000000000000000000000000000000001111
1111000000000000000111111000000000000000000000000000000000000000000000
0000000000001111001100001100000000001111011100000000000000000000000000
0000000000000000000000000000000000000000000000000001111111111011111111
1111111100000000000000000000000000000000011111111000000000000000111111
1000000000000000000000000000000000000000000000000000000001101100010001
0001110000000111101110000000000000000000000000000000000000000000000000
0000000000000000000000000001111111111101111111111111111100000000000000
0000000000000000111111110000000000000001111111000000000000000000000000
0000000000000000000000000000001111001000000011000111010011011110111000
0000000000000000000000000000000000000000000000000000000000000000000000
0001110111111111111111111111111110000000000000000000000000000111111110
0000000000000011111110000000000000000000000000000000000000000000000000
0000110010010010000011000000010110000111011100000000000000000000000000
0000000000000000000000000000000000000000000000000110011111111101111111
1111111111100000000000000000000000000111111100000000000000011111100000
0000000000000000000000000000000000000000000000000100001000000000000000
0000001111000111011100000000000000000000000000000000000000000000000000
0000000000000000000000000000000111111110001111111111111111000000000000
0000000000001111111000000000000000111111000000000000000000000000000000
0000000000000000000001111000001000000111100001111001100010001111110000
0000000000000000000000000000000000000000000000000000000000000000000000
0000000011111110000111111111111111110000000000000000000001111111000000
0000000001111110000000000000000000000000000000000000000000000000011111
0000010000100010110011110001000000001111111000000000000000000000000000
0000000000000000000000000000000000000000000000000000000111111100001111
1111111111111000000000000000000011111110000000000000001111110000000000
0000000000000000000000000000000000000011111100000001010000001011100111
0001100001000111111000000000000000000000000000000000000000000000000000
0000000000000000000000000000000011111110000111111111111111110000000000
0000000011111110000000111000011111100000000000000000000000000000000000
0000000000011111110000000001100000000011110000001110000000111111100000
0000000000000000000000000000000000000000000000000000000000000000000000
0000000001111111100011111111111111111100000000000000011111110000000110
0000111111000000000000000000000000000000000000000000000111111000000000
0000000000001101111000001111001101011111100000000000000000000000000000
0000000000000000000000000000000000000000000000000000000011111111101111
1111111111111111000000000000001111100011111100000011111000000001100000
0000000000000000000000000000111111100000000000000001001000100111101100
1111001100011111100000000000000000000000000000000000000000000000000000
0000000000000000000000000000000000111111100111111111111111111110000100
0000010111100111110000000111111000000110000000000000000000000000000000
0111111100000000000000011111001000100111111111111100110011110110000000
0000000000000000000000000000000000000000000000000000000000000000000000
0000000000011101110111111111111111111111100111110011101101111111100000
0011110000001100000000000000000000000000000001111110000000011111111000
1100000000000011111111111111000011111110000000000000000000000000000000
0000000000000000000000000000000000000000000000000000000000111001111111
1111111111111111111111111110100011111111100000100111011111000000000000
0000000000000000000111111100111111111000000000000000000010011111111111
1111110100111110000000000000000000000000000000000000000000000000000000
0000000000000000000000000000000000011100110111111111111111111111111111
1111100011111111100000110110111101000000000000000000000000000011111110
1111111110000000000000000100000010011111111111111101000011111000000000
0000000000000000000000000000000000111111110000000000000000000000000000
0000000000001110011111111111111111111111111111111110100111111100000111
1110100111100000000000000000000000011111111111111100000000000000111111
1100000001111101111111101100000011111000000000000000000000000000000000
0000011111111111111111100000000000000000000000000000000000011100111111
1111111111111111111111111110010011111100000010011001111010000000000000
0000000011111111111111100000000001111111111111110000000011100011111101
1001000110111000000000000000000000000000000000001111111111111111111111
1100000000000000000000000000000000000111111111111111111111111111111111
1110011001111100000110000111111110000000000000110000111111111111111000
0111111111111111111111111011101011100011111100000000011011100000000000
0000000000000000000000111111111111111111111111111110000000000000000000
0000000000000011111111111111111111111111111111111001101111110000010000
1111111110000000101000000011111111111111101111111111111111111111111111
0000000111100111111100000000011011100000000000000000000000000000001111
1111111111111111111111111111100000000000000000000000000000000111111111
1111111111111111111111111111001111100000100111110111011100110000000001
1111111111111111111111111111111111111110000000000010000010111111000000
0000110111000000000000000000000000000000111111111111111100011111111111
1111110000000000000000000000000000000011111111111111111111111110110111
1111111110000111011111000111100000000000000111111111111111111111101111
1111111100000000000001100000000100111111011000000011111100000000000000
0000000000000001111111111100000000000000011111111111110000000000000000
0000000000000001111111111111111111111111110111111111100001110111110000
1111100000000000111111111111111111111111111111111111111111111111100000
0000000101111100111000000111111000000000000000000000000000011111111110
0001111111111111000001111111111000000000000000000000000000000011111111
1111111111111111110111101100001111111111100000111111000000111111111111
1111111111111111111111001110000000000000000000000000100110000000000000
1111111000000000000000000000000000111111111001111111100000000111110001
1111111110000000000000000000000000000001111111111111111111111111011111
1111111110111110001111111111101111111111111111111111111111100000011000
0100000000000000000000000000101110001100000000110111000000000000000000
0000000001111111100111110000000000000000111100011111111100000000000000
0000000000000000111111111111111111111111101111111000011111100001111100
1111111111111111111111111111000000000000011000000000000000000000000000
0000011110000100000001101111000000000000000000000000001111111000111000
0000000000000000000111000111111110000000000000000111110000000001111111
1111111111110001111011111111111111110111110000011111111111111111111100
0000000000000000000000000000000000000000000000000101100000101100011110
1110000000000000000000000000011111110000100000000000000000000000000010
0011111111000000000000011011111111100001111111111111111110000111111111
1111111111111111100111111111111111111100000000000000000000000000000000
0000000000000000000000000111100000001100111111110000000000000000000000
0000111111100000000000000000000000000000000001100111111110000000000111
1111000111110000111111111111111111111111111001011111111111111111111111
1111111110000111111111111111111111111111111111100000000000000000000000
1011100000000111111111100000000000000000000000000111111000000000000000
0000000000000000000000010001111111000000000111111100000111111111111111
1111111111111111111001011011111111111111111111111111111111111111111111
1111111111111111111111111111111111000000000000111100000001111111111100
0000000000000000000000001111110000000000000000000000000000000000000000
1100111111100000000111111111110111111111111011111111111111111111111111
1111111111111111111111111111111111110000000000000000000000000000001111
1111111111111111111101111111111111110111111000000000000000000000000000
1111100000000000000000000000000000000000000000001001111111000111101111
1111011111111111111100011111111111111111111111111111111111111111111111
1111110000000000000000000000000000000000000000000000011111111000001111
1000000001111111110000000000000000000000000001111100000000000000000000
0000000000000000000000000100111111000111111100011111111111111111111000
1110001111111111110111111111111111111111111111111110000000000000000000
0000000000000000000000000000000000000000001111000000000111111100000000
0000000000000000000011111000000000000000000000000000000000000000000000
0010011111001111100100000001111111111111111100111000000011111111111111
1111111111111111110001111110000000000000000000000000000000000000000000
0000000000000000001111000000000111100000000000000000000000000000011111
1000000000000000000000000000000000000000000000000100110001111111011000
0000001111001111111111111000000001111111101111111111111111111000000011
1111111110000000000000000000000000000000000000000000000000000001111100
0000000000000000000000000000000000000000011111000000000000000000000000
0000000000000000000000000110100111111001101100000000111111111111111111
1000000011111011111111111111111111000000011101111111111110000000000000
0000000000000000000000000000000000000001111000000000000000000000000000
0000000000000000111110000000000000000000000000000000000000000000000000
0011011111110000100100000000110011111111111111000000111111111111111111
1111111100000011100000111101111111000000000000000000000000000000000000
0000000000000011111100000000000000000000000000000000000000000011111000
0000000000000000000000000000000000000000000000000011111111000001001000
0000110011111111111111000011111111111111111111111110000011100000000000
1111111100100100000000000000000000000000000000000000000000011111110000
0000000000000000000000000000000000000111110000000000000000000000000000
0000000000000000000000000111111111000001100100000011111111111110111100
1111111111111111111111111111111000000000000000001111111000000000000000
0000000000000000000000000000000000111111100000000000000000000000000000
0000000000000111100000000000000000000000000000000000000000000000000001
1111111111100000110110000011110111111110110111111111111111111111111110
0000000000000000000000001111111000100000000000000000000000000000000000
0000000011111111000000000000000000000000000000000000000000111110000000
0000000000000000000000000000000000000000000011111111111110000001001100
0011100111111111111111111111111111111111110000000000000000000000000000
1111111000100100000000000000000000000000000000000000011111111000000000
0000000000000000000000000000000000111100000000000000000000000000000000
0000000000000000001111111010111111000000100100000110011111111111111111
1111111111111111000000000000000000000000000000111111110011010000000000
0000000000000000000000000000011111110000000000000000000000000000000000
0000000001111100000000000000000000000000000000000000000000000001111111
0010011111000000010010000111111111111111111111111111111111110000000000
0000000000000000000000011111110001010000000000000000000000000000000000
0000001110000000000000000000000000000000000000000000000111100000000000
0000000000000000000000000000000000000111111100000101111110000001101100
0111111111111111111111111110011111000000000000000000000000000000000001
1111110001010000000000000000000000000000000000000000111000000000000000
0000000000000000000000000000000111100000000000000000000000000000000000
0000000000011111111000000100111110000000110111111111111111111111111111
1001111100000000000000000000000000000000000001111111000101000000000000
0000000000000000000000000000000000000000000000000000000000000000000000
0000001111100000000000000000000000000000000000000000000001111111000000
0010111110000000111111111111111101111111111100011111000000000000000000
0000000000000000000000111111100111111111111000000000000000000000000000
0000000000000000000000000000000000000000000000000000111100000000000000
0000000000000000000000000000000111111100000000001011111100001111111111
0111111111111111000000111100000000000000000000000000000000000000000011
1111111111111111111111110000000000000000000000000000000000000000000000
0000000000000000000000000000111100000000000000000000000000000000000000
0000011111111000000000000101111101111111110001111111111111110000001111
0000000000000000000000000000000000000000000011111111111111111111111111
1100000000000000000000000000000000000000000000000000000000000000000000
0001111100000000000000000000000000000000000000000011111111000000000000
0101111111111000111111111111111111000000111100000000000000000000000000
0000000000000000000001111111111111111111111111111110000000000000000000
0000000000000000000000000000000000000000000000000111100000000000000000
0000000000000000000000001111011110000000000000011111111000000110111111
1111001100000011110000000000000000000000000000000000000000000000000111
1110111111111111111111111111100000000000000000000000000000000000000000
0000000000000000000000000111100000000000000000000000000000000000000001
1111111000000000000001111111111000000011111111101101100000111100000000
0000000000000000000000000000000000000000011111111110010110001111111111
1111110000000000000000000000000000000000000000000000000000000000000000
0111101000000000000000000000000000000000000111101111000000000000111111
1111100000001111110001101110000011111000000000000000000000000000000000
0000000000000000111111111101111110000000011111111111110000000000000000
0000000000000000000000000000000000000000000000011110000000000000000000
0000000000000000001111111110000000000111111100110000000111111110111110
0000000111100000000000000000000000000000000000000000000000001111111111
1111111111111000000001111111111000000000000000000000000000000000000000
0000000000000000000000111100100000000000000000000000000000000011111111
1000000000111111100000000001111111111111100000000001111000000000000000
0000000000000000000000000000000000011111111111111111111111111110000001
1111111100000000000000000000000000000000000000000000000000000000000011
1100000000000000000000000000000001100111101000100000111111110000000001
1111111110000011000000000111100000000000000000000000000000000000000000
0000000000111111111111111111111111000001110000011111111000000000000000
0000000000000000000000000000000000000000000011110100000000000000000000
0000000111111111011000111111000000000000011111111111100000010000000001
1110000000000000000000000000000000000000000000000000000111111111111111
1111011110000000001100001111111110000000000000000000000000000000000000
0000000000000000000011110100000000000000000000000000111111111111111110
0000000000000001111111111111000000100000000011110000000000000000000000
0000000000000000000000000000001111111101111111110000110000000000000100
0011111110000000000000000000000000000000000000000000000000000000001111
0100000000000000000000000001111111111111000100000000000000111111110111
1111100001100000001111000000000000000000000000000000000000000000000000
0000001111111001111111111000110000000000000011000111111100000000000000
0000000000000000000000000000000000000000001111010000000000000000000000
0011111111111111000100000000001111111011110111111111111111110011110000
0000000000000000000000000000000000000000000000000001111111001001111111
1000000000000000000000100011111110000000000000000000000000000000000000
0000000000000000001111000000000000000000000000001111101111111110011000
0001111111000111111100111111111111000111100000000000000000000000000000
0000000000000000000000000011111110010001111111110000000000000000000001
0001111111000000000000000000000000000000000000000000000000000000111101
0000000000000000000000111111111111111111100000111111111111001111000011
1111000000011110000000000000000000000000000000000000000000000000000000
0111111100100000110111110000000000000000000000100011111110000000000000
0000000000000000000000000000000000000000111101000000000000000000011001
1111111111111100000111111111110000001111110011111000000111110000000000
0000000000000000000000000000000000000000000000011111100100000011111111
0000000000000000000000010001111110000000000000000000000000000000000000
0000000000000000111101000000000000000000100001111111111111000111111111
1111100000000100111111111000001111000000000000000000000000000000000000
0000000000000000000000111111001000000011111111000000000000000000000000
1000111111000000000000000000000000000000000000000000000000000011110100
0000000000000001000001111111111111111111111110111110000000000101111111
1000111100000000000000000000000000000000000000000000000000000000000011
1110010000000001111111100000000000000000000000010011111110000000000000
0000000000000000000000000000000000000011110100000000000000001000000111
1111011111111000000000111110000000000000111111101111000000000000000000
0000000000000000000000000000000000000000000111111011000000000111111110
0000000000000000000000001001111110000000000000000000000000000000000000
0000000000000011110100000000000000001000000111111110111111000000000001
1111000000000000111111111110000000000000000000000000000000000000000000
0000000000000000000111110010000000000011111110000000000000000000000000
0100111111000000000000000000000000000000000000000000000000001111000000
0000000000010000000111111111111111100000000001111100000000000011111111
1000000000000000000000000000000000000000000000000000000000000000111111
0100000000000011111111000000000000000000000000000011111100000000000000
0000000000000000000000000000000000001111000000000000000001000000001111
1111111111100000000001111110000000000010111110000000000000000000000000
0000000000000000000000000000000000000000111110010000000000001111111100
0000000000000000000000001001111110000000000000000000000000000000000000
0000000000001111000000000000000001000000001110111111111100000000000011
1110000000000011111110000000000000000000000000000000000000000000000000
0000000000000001111110100000000000001111111100000000000000000000000000
0001111110000000000000000000000000000000000000000000000000111100000000
0000000001000000000111111111111100000000000011111100000000001111111000
0000000000000000000000000000000000000000000000000000000000000111110010
0000000000000111111110000000000000000000000000010011111000000000000000
0000000000000000000000000000000000111100000000000000000100000000010111
1111111000000000000001111110000000111111111000000000000000000000000000
0000000000000000000000000000000000000111110100000000000000011111111000
0000000000000000000000001011111100000000000000000000000000000000000000
0000000000111100100000000000000100000000011111111111100000000000000000
1111000011111111110000000000000000000000000000000000000000000000000000
0000000000001111100100000000000000011111111000000000000000000000000000
1011111100000000000000000000000000000000000000000000000001111000000000
0000000000000000011100111111110000000000000000011111011111111111000000
0000000000000000000000000000000000000000000000000000000000111110010000
0000000000001111111100000000000000000000000000100111110000000000000000
0000000000000000000000000000000001111000000000000000001000000001000000
1111110000000000000000000011111001111111000000000000000000000000000000
0000000000000000000000000000000000111110100000000000000000111111110000
0000000000000000000000010111111000000000000000000000000000000000000000
0000000001111000000000000000000100000000110000111011000000000000000000
0111110001111111000000000000000000000000000000000000000000000000000000
0000000000111110100000000000000000111111110000000000000000000000000001
0111111000000000000000000000000000000000000000000000000111100000000000
0000000011111001110111011111000000000000000001111111001111111100000000
0000000000000000000000000000000000000000000000000000000011110010000000
0000000000011111111000000000000000000000000000001111100000000000000000
0000000000000000000000000000000111110000000000000000000111110110111100
0110000000000000000111110001101011111100000000000000000000000000000000
0000000000000000000000000000000111110110000000000000000001111111100000
0000000000000000000000101111100000000000000000000000000000000000000000
0000000011110000000000000000000001110000000001111000000000000000111100
0001111011111000000000000000000000000000000000000000000000000000000000
0000000111110100000000000000000001111111100000000000000000000000000010
1111110000000000000000000000000000000000000000000000001111000000000000
0000000000000000000111100000000000000011110000000011101111100000000000
0000000000000000000000000000000000000000000000000000011111010000000000
0000000001111111110000000000000000000000000010111111000000000000000000
0000000000000000000000000000001111100000000000000000000000000001111110
0000000000001111000000000001011111100000000000000000000000000000000000
0000000000000000000000000000011111010000000000000000000011111111100000
0000000000000000000010111111000000000000000000000000000000000000000000
0000000111100000000000000000000000000110011000000000000111000000000000
0001011111100000000000000000000000000000000000000000000000000000000000
0000011111010000000000000000000011111111110000000000000000000000000001
1111000000000000000000000000000000000000000000000000011110000000000000
0000000000111111110000000000011000000000000000000101111100000000000000
0000000000000000000000000000000000000000000000000001111101000000000000
0000000011111111110000000000000000000000000101111100000000000000000000
0000000000000000000000000000011111000000000000000000000011111110000000
0011100000000000000000001001111100000000000000000000000000000000000000
0000000000000000000000000001111101000000000000000000000111111111100000
0000000000000000000101111100000000000000000000000000000000000000000000
0000001111000000000000000000000001111110000000111000000000000000000000
1011111100000000000000000000000000000000000000000000000000000000000000
0001111101000000000000000000000011111111100000000000000000000000010111
1100000000000000000000000000000000000000000000000000111010000000000000
0000000001111110000111000000000000000000000001001111100000000000000000
0000000000000000000000000000000000000000000000000111110100000000000000
0000000001111111100000000000000000000000010111110000000000000000000000
0000000000000000000000000000011110000000000000000000000111111001100000
0000000000000000000001011111110000000000000000000000000000000000000000
0000000000000000000000000111110100000000000000000000000111111110000000
0000000000000000010111110000000000000000000000000000000000000000000000
0000011111000000000000000000000011111110000000000000000000000000001001
1111111000000000000000000000000000000000000000000000000000000000000000
0111110100000000000000000000000111111000000000000000000000000001011111
0000000000000000000000000000000000000000000000000000111100000000000000
0000000001100000000000000000000000000000001011111100110000000000000000
0000000000000000000000000000000000000000000000011111010000000000000000
0000000011111000000000000000000000000001011111000000000000000000000000
0000000000000000000000000000111010000000000000000000000000000000000000
0000000000000000010011111000110000000000000000000000000000000000000000
0000000000000000000000011111011000000000000000000000000000000000000000
0000000000000000011111000000000000000000000000000000000000000000000000
0000011111000000000000000000000000000000000000000000000000000000011111
1000011000000000000000000000000000000000000000000000000000000000000001
1111001000000000000000000000000000000000000000000000000000001001111100
0000000000000000000000000000000000000000000000000001110100000000000000
0000000000000000000000000000000000000010111111000000110000000000000000
0000000000000000000000000000000000000000000000111100100000000000000000
0000000000000000000000000000000000001011111100000000000000000000000000
0000000000000000000000000000111010000000000000000000000000000000000000
0000000000000100111111000000011000000000000000000000000000000000000000
0000000000000000000000111110100000000000000000000000000000000000000000
0000000000001011111100000000000000000000000000000000000000000000000000
0000011101000000000000000000000000000000000000000000000000100111111000
0000001100000000000000000000000000000000000000000000000000000000000011
1110000000000000000000000000000000000000000000000000000000101111110000
0000000000000000000000000000000000000000000000000001111010000000000000
0000000000000000000000000000000001001111111000000000111000000000000000
0000000000000000000000000000000000000000000011111001000000000000000000
0000000000000000000000000000000000101111100000000000000000000000000000
0000000000000000000000000000111000000000000000000000000000000000000000
0000000010011111110000000000011100000000000000000000000000000000000000
0000000000000000000001111001000000000000000000000000000000000000000000
0000000001001111100000000000000000000000000000000000000000000000000000
0000011101000000000000000000000000000000000000000000010011111110000000
0000001110000000000000000000000000000000000000000000000000000000000111
1100000000000000000000000000000000000000000000000000000101111110000000
0000000000000000000000000000000000000000000000000000111010000000000000
0000000000000000000000000000100111111100000000000000111100000000000000
0000000000000000000000000000000000000000000111110000000000000000000000
0000000000000000000000000000001101111110000000000000000000000000000000
0000000000000000000000000000011111000000000000000000000000000000000000
0001001111111100000000000000011100000000000000000000000000000000000000
0000000000000000000011110000000000000000000000000000000000000000000000
0000001001111100000000000000000000000000000000000000000000000000000000
0000001111010000000000000000000100000000000000010001111111100000000000
0000000000000000000000000000000000000000000000000000000000000000001111
1000000000000000000000000000000000000000000000000000101111110000000000
0000000000000000000000000000000000000000000000000000011110100000000000
0000000100000000000000000011111111000000000000000000000000000000000000
0000000000000000000000000000000000000000001111100000000000000000000000
0000000000000000000000000001001111110000000000000000000000000000000000
0000000000000000000000000000011111011000000000000000000000000000001000
0111111110000000000000000000000000000000000000000000000000000000000000
0000000000000000000111110000000000000000000000000000000000000000000000
0001011111100000000000000000000000000000000000000000000000000000000000
0000000111100100000000000000000000000000000001111111110000000000000000
0000000000000000000000000000000000000000000000000000000000000000011110
0000000000000000000000000000000000000000000000001001111110000000000000
0000000000000000000000000000000000000000000000000000001111101100000000
0000010000000000000111111111100000000000000000000000000000000000000000
0000000000000000000000000000000000000000001111100000000000000000000000
0000000000000000000000010011111100000000000000000000000000000000000000
0000000000000000000000000000000111111011100000000000000000000001111111
1110000000000000000000000000000000000000000000000000000000000000000000
0000000000000000001111010000000000000000000000000000000000000000000001
0011111100000000000000000000000000000000000000000000000000000000000000
0000000011111110011100000000000000001111111111110000000000000000000000
0000000000000000000000000000000000000000000000000000000000000000011110
0000000000000000000000000000000000000000000010011111100000000000000000
0000000000000000000000000000000000000000000000000000000011111110001111
0000000111111111111111100000000000000000000000000000000000000000000000
0000000000000000000000000000000000000000001111100000000000000000000000
0000000000000000000000111111100000000000000000000000000000000000000000
0000000000000000000000000000000000111111111000111111111111111111111000
0000000000000000000000000000000000000000000000000000000000000000000000
0000000000000000001111010000000000000000000000000000000000000000000011
1111000000000000000000000000000000000000000000000000000000000000000000
0000000000001111111111111111111111111111100000000000000000000000000000
0000000000000000000000000000000000000000000000000000000000000000011110
1000000000000000000000000000000000000000000111111100000000000000000000
0000000000000000000000000000000000000000000000000000000000001111111111
1111111111111110000000000000000000000000000000000000000000000000000000
0000000000000000000000000000000000000000001111010000000000000000000000
0000000000000000001111111000000000000000000000000000000000000000000000
0000000000000000000000000000000000000011111111111111111111100000000000
0000000000000000000000000000000000000000000000000000000000000000000000
0000000000000000001111101000000000000000000001000000000000000001011111
0000000000000000000000000000000000000000000000000000000000000000000000
0000000000000000000111111111110000000000000000000000000000000000000000
0000000000000000000000000000000000000000000000000000000000000000011111
0100000000000000000001000000000000000011111110000000000000000000000000
0000000000000000000000000000000000000000000000000000000000000000000000
0000000000000000000000000000000000000000000000000000000000000000000000
0000000000000000000000000000000000000000001111100000000000000000000000
0000000000001101111100000000000000000000000000000000000000000000000000
0000000000000000000000000000000000000000000000000000000000000000000000
0000000000000000000000000000000000000000000000000000000000000000000000
0000000000000000000111111010000000000000000000000000000001011111100000
0000000000000000000000000000000000000000000000000000000000000000000000
0000000000000000000000000000000000000000000000000000000000000000000000
0000000000000000000000000000000000000000000000000000000000000000001111
1101000000000000000100000000000110111111000000000000000000000000000000
0000000000000000000000000000000000000000000000000000000000000000000000
0000000000000000000000000000000000000000000000000000000000000000000000
0000000000000000000000000000000000000000000111111000000000000000000000
0000011111111110000000000000000000000000000000000000000000000000000000
0000000000000000000000000000000000000000000000000000000000000000000000
0000000000000000000000000000000000000000000000000000000000000000000000
0000000000000000000001111110010000000000000000000110011111110000000000
0000000000000000000000000000000000000000000000000000000000000000000000
0000000000000000000000000000000000000000000000000000000000000000000000
0000000000000000000000000000000000000000000000000000000000000000000011
1111110000000000000000110011111111100000000000000000000000000000000000
0000000000000000000000000000000000000000000000000000000000000000000000
0000000000000000000000000000000000000000000000000000000000000000000000
0000000000000000000000000000000000000000000000111111111000011111110000
1111111111000000000000000000000000000000000000000000000000000000000000
0000000000000000000000000000000000000000000000000000000000000000000000
0000000000000000000000000000000000000000000000000000000000000000000000
0000000000000000000000011111111111111111111111111111110000000000000000
0000000000000000000000000000000000000000000000000000000000000000000000
0000000000000000000000000000000000000000000000000000000000000000000000
0000000000000000000000000000000000000000000000000000000000000000000000
0111111111111111111111111111100000000000000000000000000000000000000000
0000000000000000000000000000000000000000000000000000000000000000000000
0000000000000000000000000000000000000000000000000000000000000000000000
0000000000000000000000000000000000000000000000000011111111111111111111
1100000000000000000000000000000000000000000000000000000000000000000000
0000000000000000000000000000000000000000000000000000000000000000000000
0000000000000000000000000000000000000000000000000000000000000000000000
0000000000000000000000000000011111111111111110000000000000000000000000
0000000000000000000000000000000000000000000000000000000000000000000000
0000000000000000000000000000000000000000000000000000000000000000000000
0000000000000000000000000000000000000000000000000000000000000000000000
0000000000000000000000000000000000000000000000000000000000000000000000
0000000000000000000000000000000000000000000000000000000000000000000000
0000000000000000000000000000000000000000000000000000000000000000000000
0000000000000000000000000000000000000000000000000000000000000000000000
0000000000000000000000000000000000000000000000000000000000000000000000
0000000000000000000000000000000000000000000000000000000000000000000000
0000000000000000000000000000000000000000000000000000000000000000000000
0000000000000000000000000000000000000000000000000000000000000000000000
0000000000000000000000000000000000000000000000000000000000000000000000
0000000000000000000000000000000000000000000000000000000000000000000000
0000000000000000000000000000000000000000000000000000000000000000000000
0000000000000000000000000000000000000000000000000000000000000000000000
0000000000000000000000000000000000000000000000000000000000000000000000
0000000000000000000000000000000000000000000000000000000000000000000000
0000000000000000000000000000000000000000000000000000000000000000000000
0000000000000000000000000000000000000000000000000000000000000000000000
0000000000000000000000000000000000000000000000000000000000000000000000
0000000000000000000000000000000000000000000000000000000000000000000000
0000000000000000000000000000000000000000000000000000000000000000000000
0000000000000000000000000000000000000000000000000000000000000000000000
0000000000000000000000000000000000000000000000000000000000000000000000
0000000000000000000000000000000000000000000000000000000000000000000000
0000000000000000000000000000000000000000000000000000000000000000000000
000000000000