P1
# CREATOR: GIMP PNM Filter Version 1.1
256 192
0000000000000000000000000000000000000000000000000000000000000000000000
0000000000000000000000000000000000000000000000000000000000000000000000
0000000000000000000000000000000000000000000000000000000000000000000000
0000000000000000000000000000000000000000000000000000000000000000000000
0000000000000000000000000000000000000000000000000000000000000000000000
0000000000000000000000000000000000000000000000000000000000000000000000
0000000000000000000000000000000000000000000000000000000000000000000000
0000000000000000000000000000000000000000000000000000000000000000000000
0000000000000000000000000000000000000000000000000000000000000000000000
0000000000000000000000000000000000000000000000000000000000000000000000
0000000000000000000000000000000000000000000000000000000000000000000000
0000000000000000000000000000000000000000000000000000000000000000000000
0000000000000000000000000000000000000000000000000000000000000000000000
0000000000000000000000000000000000000000000000000000000000000000000000
0000000000000000000000000000000000000000000000000000000000000000000000
0000000000000000000000000000000000000000000000000000000000000000000000
0000000000000000000000000000000000000000000000000000000000000000000000
0000000000000000000000000000000000000000000000000000000000000000000000
0000000000000000000000000000000000000000000000000000000000000000000000
0000000000000000000000000000000000000000000000000000000000000000000000
0000000000000000000000000000000000000000000000000000000000000000000000
0000000000000000000000000000000000000000000000000000000000000000000000
0000000000000000000000000000000000000000000000000000000000000000000000
0000000000000000000000000000000000000000000000000000000000000000000000
0000000000000000000000000000000000000000000000000000000000000000000000
0000000000000000000000000000000000000000000000000000000000000000000000
0000000000000000000000000000000000000000000000000000000000000000000000
0000000000000000000000000000000000000000000000000000000000000000000000
0000000000000000000000000000000000000000000000000000000000000000000000
0000000000000000000000000000000000000000000000000000000000000000000000
0000000000000000000000000000000000000000000000000000000000000000000000
0000000000000000000000000000000000000000000000000000000000000000000000
0000000000000000000000000000000000000000000000000000000000000000000000
0000000000000000000000000000000000000000000000000000000000000000000000
0000000000000000000000000000000000000000000000000000000000000000000000
0000000000000000000000000000000000000000000000000000000000000000000000
0000000000000000000000000000000000000000000000000000000000000000000000
0000000000000000000000000000000000000000000000000000000000000000000000
0000000000000000000000000000000000000000000000000000000000000000000000
0000000000000000000000000000000000000000000000000000000000000000000000
0000000000000000000000000000000000000000000000000000000000000000000000
0000000000000000000000000000000000000000000000000000000000000000000000
0000000000000000000000000000000000000000000000000000000000000000000000
0000000000000000000000000000000000000000000000000000000000000000000000
0000000000000000000000000000000000000000000000000000000000000000000000
0000000000000000000000000000000000000000000000000000000000000000000000
0000000000000000000000000000000000000000000000000000000000000000000000
0000000000000000000000000000000000000000000000000000000000000000000000
0000000000000000000000000000000000000000000000000000000000000000000000
0000000000000000000000000000000000000000000000000000000000000000000000
0000000000000000000000000000000000000000000000000000000000000000000000
0000000000000000000000000000000000000000000000000000000000000000000000
0000000000000000000000000000000000000000000000000000000000000000000000
0000000000000000000000000000000000000000000000000000000000000000000000
0000000000000000000000000000000000000000000000000000000000000000000000
0000000000000000000000000000000000000000000000000000000000000000000000
0000000000000000000000000000000000000000000000000000000000000000000000
0000000000000000000000000000000000000000000000000000000000000000000000
0000000000000000000000000000000000000000000000000000000000000000000000
0000000000000000000000000000000000000000000000000000000000000000000000
0000000000000000000000000000000000000000000000000000000000000000000000
0000000000000000000000000000000000000000000000000000000000000000000000
0000000000000000000000000000000000000000000000000000000000000000000000
0000000000000000000000000000000000000000000000000000000000000000000000
0000000000000000000000000000000000000000000000000000000000000000000000
0000000000000000000000000000000000000000000000000000000000000000000000
0000000000000000000000000000000000000000000000000000000000000000000000
0000000000000000000000000000000000000000000000000000000000000000000000
0000000000000000000000000000000000000000000000000000000000000000000000
0000000000000000000000000000000000000000000000000000000000000000000000
0000000000000000000000000000000000000000000000000000000000000000000000
0000000000000000000000000000000000000000000000000000000000000000000000
0000000000000000000000000000000000000000000000000000000000000000000000
0000000000000000000000000000000000000000000000000000000000000000000000
0000000000000000000000000000000000000000000000000000000000000000000000
0000000000000000000000000000000000000000000000000000000000000000000000
0000000000000000000000000000000000000000000000000000000000000000000000
0000000000000000000000000000000000000000000000000000000000000000000000
0000000000000000000000000000000000000000000000000000000000000000000000
0000000000000000000000000000000000000000000000000000000000000000000000
0000000000000000000000000000000000000000000000000000000000000000000000
0000000000000000000000000000000000000000000000000000000000000000000000
0000000000000000000000000000000000000000000000000000000000000000000000
0000000000000000000000000000000000000000000000000000000000000000000000
0000000000000000000000000000000000000000000000000000000000000000000000
0000000000000000000000000000000000000000000000000000000000000000000000
0000000000000000000000000000000000000000000000000000000000000000000000
0000000000000000000000000000000000000000000000000000000000000000000000
0000000000000000000000000000000000000000000000000000000000000000000000
0000000000000000000000000000000000000000000000000000000000000000000000
0000000000000000000000000000000000000000000000000000000000000000000000
0000000000000000000000000000000000000000000000000000000000000000000000
0000000000000000000000000000000000000000000000000000000000000000000000
0000000000000000000000000000000000000000000000000000000000000000000000
0000000000000000000000000000000000000000000000000000000000000000000000
0000000000000000000000000000000000000000000000000000000000000000000000
0000000000000000000000000000000000000000000000000000000000000000000000
0000000000000000000000000000000000000000000000000000000000000000000000
0000000000000000000000000000000000000000000000000000000000000000000000
0000000000000000000000000000000000000000000000000000000000000000000000
0000000000000000000000000000000000000000000000000000000000000000000000
0000000000000000000000000000000000000000000000000000000000000000000000
0000000000000000000000000000000000000000000000000000000000000000000000
0000000000000000000000000000000000000000000000000000000000000000000000
0000000000000000000000000000000000000000000000000000000000000000000000
0000000000000000000000000000000000000000000000000000000000000000000000
0000000000000000000000000000000000000000000000000000000000000000000000
0000000000000000000000000000000000000000000000000000000000000000000000
0000000000000000000000000000000000000000000000000000000000000000000000
0000000000000000000000000000000000000000000000000000000000000000000000
0000000000000000000000000000000000000000000000000000000000000000000000
0000000000000000000000000000000000000000000000000000000000000000000000
0000000000000000000000000000000000000000000000000000000000000000000000
0000000000000000000000000000000000000000000000000000000000000000000000
0000000000000000000000000000000000000000000000000000000000000000000000
0000000000000000000000000000000000000000000000000000000000000000000000
0000000000000000000000000000000000000000000000000000000000000000000000
0000000000000000000000000000000000000000000000000000000000000000000000
0000000000000000000000000000000000000000000000000000000000000000000000
0000000000000000000000000000000000000000000000000000000000000000000000
0000000000000000000000000000000000000000000000000000000000000000000000
0000000000000000000000000000000000000000000000000000000000000000000000
0000000000000000000000000000000000000000000000000000000000000000000000
0000000000000000000000000000000000000000000000000000000000000000000000
0000000000000000000000000000000000000000000000000000000000000000000000
0000000000000000000000000000000000000000000000000000000000000000000000
0000000000000000000000000000000000000000000000000000000000000000000000
0000000000000000000000000000000000000000000000000000000000000000000000
0000000000000000000000000000000000000000000000000000000000000000011111
0000000000000000000000000000000000000000000000000000000000000000000000
0000000000000000000000000000000000000000000000000000000000000000000000
0000000000000000000000000000000000000000000000000000000000000000000000
0000000000000000000000000000000000000000111111111100000000000000000000
0000000000000000000000000000000000000000000000000000000000000000000000
0000000000000000000000000000000000000000000000000000000000000000000000
0000000000000000000000000000000000000000000000000000000000000000000000
0000000000000000111111111111111000000000000000000000000000000000000000
0000000000000000000000000000000000000000000000000000000000000000000000
0000000000000000000000000000000000000000000000000000000000000000000000
0000000000000000000000000000000000000000000000000000000000000111111111
1111111111110000000000000000000000000000000000000000000000000000000000
0000000000000000000000000000000000000000000000000000000000000000000000
0000000000000000000000000000000000000000000000000000000000000000000000
0000000000000000000000000000000000001111111111111111111111111111000000
0000000000000000000000000000000000000000000000000000000000000000000000
0000000000000000000000000000000000000000000000000000000000000000000000
0000000000000000000000000000000000000000000000000000000000000000000000
0000000000011111111111111111111111111111111100000000000000000000000000
0000000000000000000000000000000000000000000000000000000000000000000000
0000000000000000000000000000000000000000000000000000000000000000000000
0000000000000000000000000000000000000000000000000000000011111111111111
1111111111111111111111111000000000000000000000000000000000000000000000
0000000000000000000000000000000000000000000000000000000000000000000000
0000000000000000000000000000000000000000000000000000000000000000000000
0000000000000000000000000000000011111111111111111111111111111111111111
1111100000000000000000000000000000000000000000000000000000000000000000
0000000000000000000000000000000000000000000000000000000000000000000000
0000000000000000000000000000000000000000000000000000000000000000000000
0000000111111111111111111111111111111111111111111111111110000000000000
0000000000000000000000000000000000000000000000000000000000000000000000
0000000000000000000000000000000000000000000000000000000000000000000000
0000000000000000000000000000000000000000000000000000111111111111111111
1111111111111111111111111111111111111100000000000000000000000000000000
0000000000000000000000000000000000000000000000000000000000000000000000
0000000000000000000000000000000000000000000000000000000000000000000000
0000000000000000000000000000111111111111111111111111111111111111111111
1111111111111111110000000000000000000000000000000000000000000000000000
0000000000000000000000000000000000000000000000000000000000000000000000
0000000000000000000000000000000000000000000000000000000000000000000000
0001111111111111111111111111111111111111111111111111111111111111111111
0000000000000000000000000000000000000000000000000000000000000000000000
0000000000000000000000000000000000000000000000000000000000000000000000
0000000000000000000000000000000000000000000000001111111111111111111111
1111111111111111111111111111111111111111111111111000000000000000000000
0000000000000000000000000000000000000000000000000000000000000000000000
0000000000000000000000000000000000000000000000000000000000000000000000
0000000000000000000000011111111111111111111111111111111111111111111111
1111111111111111111111111111100000000000000000000000000000000000000000
0000000000000000000000000000000000000000000000000000000000000000000000
0000000000000000000000000000000000000000000000000000000000000000000011
1111111111111111111111111111111111111111111111111111111111111111111111
1111111111010000000000000000000000000000000000000000000000000000000000
0000000000000000000000000000000000000000000000000000000000000000000000
0000000000000000000000000000000000000000000011111111111111111111111111
1111111111111111111111111111111111111111111111111111111111110100000000
0000000000000000000000000000000000000000000000000000000000000000000000
0000000000000000000000000000000000000000000000000000000000000000000000
0000000000000000000111111110011111111111111111111111111111111111111111
1111111111111111111111111111111111111111110100000000000000000000000000
0000000000000000000000000000000000000000000000000000000000000000000000
0000000000000000000000000000000000000000000000000000000000000000111111
1111101111111111111111111111111111111111111111111111111111111111111111
1111111111111111111111110000000000000000000000000000000000000000000000
0000000000000000000000000000000000000000000000000000000000000000000000
0000000000000000000000000000000000000001111111111111111110011111111010
1111111111111111111111111111111111111111111111111111111111111111111111
1111100000000000000000000000000000000000000000000000000000000000000000
0000000000000000000000000000000000000000000000000000000000000000000000
0000000000000001111111111111111111111111110111111111111111111111111111
1111111111111111111111111111111111111111111111111111111100000000000000
0000000000000000000000000000000000000000000000000000000000000000000000
0000000000000000000000000000000000000000000000000000000000001111111111
1111111111111111111111111111011111111111111111111111111111111111111111
1111111111111111111111111111111111110110000000000000000000000000000000
0000000000000000000000000000000000000000000000000000000000000000000000
0000000000000000000000000000000000011111111111111111111111111111111111
1011111111100111111111111111111111111111111111111111111111111111111111
1111111111111111110000000000000000000000000000000000000000000000000000
0000000000000000000000000000000000000000000000000000000000000000000000
0000000000111111111111111111111111111111111111111111111111110111111111
1111111111111111111111111111111111111111111111111111111111111111111101
0000000000000000000000000000000000000000000000000000000000000000000000
0000000000000000000000000000000000000000000000000000000011111111101111
1111111111111111111111110111111100111111110101111111111111111111111111
1111111111111111111111111111111111111111111111110100000000000000000000
0000000000000000000000000000000000000000000000000000000000000000000000
0000000000000000000000000000000111111111111111111111111111111111111111
1111111111011111111101011111111111111111111111111111111111111111111111
1111111111111111111111111111010100000000000000000000000000000000000000
0000000000000000000000000000000000000000000000000000000000000000000000
0000001111111111111111111111111111111110011111111111111111111111111111
1111011111111111111111111111111111111111111111111111111111111111111111
1111111101001000000000000000000000000000000000000000000000000000000000
0000000000000000000000000000000000000000000000000001111111111111111111
1111011111111111111111111111111111111111110111111111011111111111111111
1111111111111111111111111111111111111111111111111111111111111111000000
0000000000000000000000000000000000000000000000000000000000000000000000
0000000000000000000000000001111111111111111111111111111111101111111111
1111111111111110111111110011111111101111111111111111111111111111111111
1111111111111111111111111111111111111111111110000000000000000000000000
0000000000000000000000000000000000000000000000000000000000000000000000
0011111111111111111111111111111111111111111111101111111111111111111111
1110111111111001111111111111111111111111111111111111111111111111111111
1111111111111111111111111100000000000000000000000000000000000000000000
0000000000000000000000000000000000000000000000011111111101111111111111
1111111111101111111101111111111011111111111111111111111001111111110111
1111111111111111111111111111111111111111111111111111111111111111111111
1111110000000000000000000000000000000000000000000000000000000000000000
0000000000000000000000111111111111000111111111111111111111111111111101
1111111101111111111111111111111111111111111010111111111111111111111111
1111111111111111111111111111111111111111111111111111111110000000000000
0000000000000000000000000000000000000000000000000000000000000000000111
1111111111111111111111111111111111111111101111111110101111111111111111
1111111111111111001111111111111111111111111111111111111111111111111111
1111111111111111111111111111111111111000000000000000000000000000000000
0000000000000000000000000000000000000000000111111111111111111111111111
1111111101111111101111111111111111111010111111111111101111111110111111
1111101111111111111111111111111111111111111111111111111111111111111111
1111111111111111110000000000000000000000000000000000000000000000000000
0000000000010000001111111111111111111111110111111111111101111111111111
1101111111111111111111101111111111111111111111111111111111111111111111
1111111111111111111111111111111111111111111111111111111111111111111100
0000000000000000000000000000000000000000000000000000000000000001111111
1111111111111111111111111111111111111111111111111111111111111111111011
1011111111111111111111111111111111111111111111111111111111111111111111
1111111111111111111111111111111111111111111111000000000000000000000000
0000000000000000000000000000000000000011111111111111111111111111111111
1111100111111101111111111111111110011111111110111111111111111111111111
1111111111111111111111111111111111111111111111111111111111111111111111
1111111111111111111110000000000000000000000000000000000000000000000000
0000000000000011111111111111111111111111111111111111111111111111111111
1111111111111111111111111111111101111111111111101111111111111111110010
1011111111111111111111111111111111111111111111111111111111111111111000
0000000000000000000000000000000000000000000000000000000000011111111111
1111111111111111111111111101111111101011111111111111111111111111101111
1110111111111111111111111111111111111111111111111111111111111111111111
1111111111111111111111111111111111111111111000000000000000000000000000
0000000000000000000000000000000000111111111111110111111111111111111111
1111111111111111111111111111111111111111111111111111011111111110011111
1111111110111111111111111111111111111111111111111111111111111111111111
1111111111111111111000000000000000000000000000000000000000000000000000
0000000001111111111111111111111111111111111111111111111110111111110101
1111111110111111111111111111111111111111111111111111111111111111111111
1111111111111111111111111111111111111111111111111111111111111111100000
0000000000000000000000000000000000000000000000000000000111111111111111
1111111111111111111111111111111111111111111101111111111111111111111111
1110111111111011111111111001111111111111101111111111111111111111111111
1111111111111111111111111111111111111111000000000000000000000000000000
0000000000000000000000000000001111111111111111111111111111111010111111
1010111111111111110111111111011111111110011111111111111111111111111111
0111111111111111111111111111101111111111111111111111111111111111111111
1111111111111111000000000000000000000000000000000000000000000000000000
0000011111111111111111111111111111111111111111111111111111111111111111
1111111111111111111111111111111111111111111110111111111011111111111111
1111111111111111111111111111111111111111111111111111111111111100000000
0000000000000000000000000000000000000000000000000011111111100111111111
1111111111111111111111111111111110011111111111111011111111101111111111
0111111111111111111111111111111111111111111111111111111111111111111111
1111111111111111111111111111111111111000000000000000000000000000000000
0000000000000000000000000111111111111111111111111111111111111111111111
1111111111111111111111111111111111111111111111110111111111111111111111
1111110101111111110111111111111111111111111111111111111111111111111111
1111111111111000000000000000000000000000000000000000000000000000000000
0111111111111111111111111111111111111111111011111111111111111110011111
1111111111111111111110111111111111111111111111111111111111111111101111
1111111111111111111111111111111111111111111111111111111111100000000000
0000000000000000000000000000000000000000000000111111111111111111111111
1111111111111111111111111111111101111111110111111111111110111111111111
1111111101011111111111111111111111111100111111111111111111111111111111
1111111111111111111111111111111111100000000000000000000000000000000000
0000000000000000000101111111111111111111111111111111111111111111111111
1111101111111111101111111111111111111111111111111111111101111111111111
1111011111111111111111111111111111111111111111111111111111111111111111
1111111111000000000000000000000000000000000000000000000000000000001111
1111111111111111111111111111111111111111111111111111111111111111111111
1110111111111111110111111101111111111111101111111111111111111111111111
1111111111111111111111111111111111111111111111111111111100000000000000
0000000000000000000000000000000000000100001111111111111111111111111111
1111111111111111111111111111111111111111111111111011111111111111111111
1111111111111111100111111111111111110111111111111111111111111111111111
1111111111111111111111111111111100000000000000000000000000000000000000
0000000000000000111111111111111111111111111111111111111111111111111111
1111111111110111111111111111111011001111111111111111111111111111111111
1111111111111111111111111111111111111111111111111111111111111111111111
1111111000000000000000000000000000000000000000000000000000101011111111
1111111111111111111111111111111111111111111111111111111111111111111111
1111110111111111111111111111111111111111111111111001111111111111111111
1111111111111111111111111111111111111111111111111111100000000000000000
0000000000000000000000000000000000001001111111111111111111111111111111
1111111111111111111111111111111111111111111011111111110111111111011111
1111111111111111111111101111111111111111111111111111111111111111111111
1111111111111111111111111111100000000000000000000000000000000000000000
0000000000100111111111111111111111111111111111111111111111111111111111
1111111111111111111111111111111111111111111001111111111111001111111111
1111111111111111111111111111111111111111111111111111111111111111111111
1111100000000000000000000000000000000000000000000000001000101111111111
1111111111111111111111111111111111111111111111111111111111111111111111
1111111111111110011111111111111111111111111111111111111111111111111111
1111111111111111111111111111111111111111111111111100000000000000000000
0000000000000000000000000000000001101111111111111111111111111111111111
1111111111111111111111111111111111111111111111111110111111111111111111
1111011111111111111111111111111111111111111111111111111111111111111111
1111111111111111111111111100000000000000000000000000000000000000000000
0001100110111111111111111111111111111111111111111111111111111111111111
1111111111111111111111111111111111111111111111001110011111111111111111
1111111111111111111111111111111111111111111111111111111111111111111111
1100000000000000000000000000000000000000000000000010001111111111111111
1111111111111111111111111111111111111111111111111111111111111111111111
1111111111111011111111111111111111111111111111111111111111011111111111
1111111111111111111111111111111111111111111111110000000000000000000000
0000000000000000000000000010101111111111111111111111111111111111111111
1111111111111111111111111111111111111111111111111111111111111111111111
1111111111111111111111111111111111111111111111111111111111111111111111
1111111111111111111111100000000000000000000000000000000000000000000000
0001111111111111111111111111111111111111111111111111111111111111111111
1111111111111111111111111111111111111111111110111111110111111111111111
1111111111111111111111111111111111111111111111111111111111111111111110
0000000000000000000000000000000000000000000000010001111111111111111111
1111111111111111111111111111111111111111111111111111111111111111111111
1111111111111111111110011111111111111111111111111111111111111111111111
1111111111111111111111111111111111111111111110000000000000000000000000
0000000000000000000000010101111111111111111111111111111111111111111111
1111111111111111111111111111111111111111111111111111111111111111111111
1111111111111111111111111111111111111111111111111111111111111111111111
1111111111111111111100000000000000000000000000000000000000000000000000
1001111111111111111111111111111111111111111111111111111111111111111111
1111111111111111111111111111111111111111111111111111111111111111111111
1111111111111111111111111111111111111111111111111111111111111111110000
0000000000000000000000000000000000000000000001001011101111111111111111
1111111111111111111111111111111111111111111111111111111111111111111111
1111111111111111111111111111111111111111111111111111111111111111111111
1111111111111111111111111111111111111111110000000000000000000000000000
0000000000000000000000110110111010111111111111111111111111111111111111
1111111111111111111111111111111111111111111111111111111111111111111111
1111111111111111111110111111111111111111111111111111111111111111111111
1111111111111111100000000000000000000000000000000000000000000000001000
0110011011111111111111111111111111111111111111111111111111111111111111
1111111111111111111111111111111111111101111111111111111111111111111110
1111111111111111111111111111111111111111111111111111111111111110000000
0000000000000000000000000000000000000000000001100110101010011101111111
1111111111111111111111111111111111111111111111111111111111111111111111
1111111111111111111111111111111111111111111111110111111111111111111111
1111111111111111111111111111111111111110000000000000000000000000000000
0000000000000000000001001000010101110111111111111111111111111111111111
1111111111111111111111111111111111111111111111111111111111111111111111
1111111111111111111111111111111111111111111111111111111111111111111111
1111111111111110000000000000000000000000000000000000000000000000000000
0001100101011001011011111111111111111111111111111111111111111111111111
1111111111111111111111111111111111111111111111011111111111111111111111
1111111111111111111111111111111111111111111111111111111111110000000000
0000000000000000000000000000000000000000000000100001000001100101101011
1111111111111111111111111111111111111111111111111111111111111111111111
1111111111111111111111111111111111111111111111111111111111111111111111
1111111111111111111111111111111111110000000000000000000000000000000000
0000000000000000000000000000101100011011011010011101111111111111111111
1111111111111111111111111111111111111111111111111111111111111111111111
1111111110111111111111111111111111111111111111111111111111111111111111
1111111111110000000000000000000000000000000000000000000000000000000000
1000000010000000110110100110111111111111111111111111111111111111111111
1111111111111111111111111111111111111111111111111111111111111111111111
1111111111111111111111111111111111111111111111111111111110000000000000
0000000000000000000000000000000000000000000000000000000001001000100101
1011101011111111111111111111111111111111111111111111111111111111111111
1111111111111111111111111111111111111111111111111111111111111111111111
1111111111111111111111111111111110000000000000000000000000000000000000
0000000000000000000000000000000000001010010010010110100011111111111111
1111111111111111111111111111111111111111111111111111111111111111111111
1111111111111111110011111111111111111111111111111111111111111111111111
1111111110000000000000000000000000000000000000000000000000000000000000
0000000000000000001010011001011110011111111111111111111111111111111111
1111111111111111111111111111111111111111111111111111111111111111111001
1111111111111111111111111111111111111111111111111111111000000000000000
0000000000000000000000000000000000000000000000000000000000000000100000
0110010101010111111111111111111111111111111111111111111111111111111111
1111111111111111111111111111111111111111101011111111111111111111111111
1111111111111111111111111111110000000000000000000000000000000000000000
0000000000000000000000000000000000000000000010000001001010110010101111
1111111111111111111111111111111111111111111111111111111111111111111111
1111111111111111111111111111111111111111111111111111111111111111111111
1111110000000000000000000000000000000000000000000000000000000000000000
0000000000000000000000010001100001101010110111111111111111111111111111
1111111111111111111111111111111111111111111111111111111111111111111111
1111111111111111111111111111111111111111111111111111000000000000000000
0000000000000000000000000000000000000000000000000000000000000000000000
0000000100000101011001011011111111111111111111111111111111111111111111
1111111111111111111111111111111111111111111111111111111111111111111111
1111111111111111111111111110000000000000000000000000000000000000000000
0000000000000000000000000000000000000000000000000000000001010010010101
1011001111111111111111111111111111111111111111111111111111111111111111
1111111111111111111111111111111111111111111111111111111111111111111111
1110000000000000000000000000000000000000000000000000000000000000000000
0000000000000000000000000010000100000100101010010111110111111111111111
1111111111111111111111111111111111111111111111111111111111111111111111
1111111111111111111111111111111111111111111111111000000000000000000000
0000000000000000000000000000000000000000000000000000000000000000000000
0000000000000000100011011010101101111111111111111111111111111111111111
1111111111111111111111111111111111111111111111111111111101111111111111
1111111111111111111111110000000000000000000000000000000000000000000000
0000000000000000000000000000000000000000000000000000000000000000100010
0101010101011101111111111111111111111111111111111111111111111111111111
1111111111111111111111111111111111111111111001111111111111111111111111
0000000000000000000000000000000000000000000000000000000000000000000000
0000000000000000000000000000000000100000001000000110011001011111111111
1111111111111111111111111111111111111111111111111111111111111111111111
1111111111111111101011011111111111111111111111000000000000000000000000
0000000000000000000000000000000000000000000000000000000000000000000000
0000000000000000000000100000100110101010101111111111111111111111111111
1111111111111111111111111111111111111111111111111111111111111110001110
1111111111111111111111000000000000000000000000000000000000000000000000
0000000000000000000000000000000000000000000000000000000000000000000000
0010010100100101011010111111111111111111111111111111111111111111111111
1111111111111111111111111111111111111010111111111111111111111111111000
0000000000000000000000000000000000000000000000000000000000000000000000
0000000000000000000000000000000000000000000000000000000110101010011010
1101111111111111111111111111111111111111111111111111111111111111111111
1111111111110001110011111111111111111111111000000000000000000000000000
0000000000000000000000000000000000000000000000000000000000000000000000
0000000000000000000000000000000000101010101101011111011111111111111111
1111111111111111111111111111111111111111111111111111111111111110111111
1111111111111111111000000000000000000000000000000000000000000000000000
0000000000000000000000000000000000000000000000000000000000000000000000
0001001000000000100010101001111111111111111111111111111111111111111111
1111111111111111111111111111111111111111111111111111111111111111000000
0000000000000000000000000000000000000000000000000000000000000000000000
0000000000000000000000000000000000000000000000000000000000100001000101
1011010111011111111111111111111111111111111111111111111111111111111111
1111111111101111111111111111111111111111000000000000000000000000000000
0000000000000000000000000000000000000000000000000000000000000000000000
0000000000000000000000000000000000000000000100000011100101101111111111
1111111111111111111111111111111111111111111111111111111111111111111111
1111111111111111000000000000000000000000000000000000000000000000000000
0000000000000000000000000000000000000000000000000000000000000000000000
0000000000000000000001010010001110111011111111111111111111111111111111
1111111111111111111111111111111111111111111111111111111111111100000000
0000000000000000000000000000000000000000000000000000000000000000000000
0000000000000000000000000000000000000000000000000000000000000101000000
1000010001010110101111111111111111111111111111111111111111111111111111
1111111111111111111111111111111111111000000000000000000000000000000000
0000000000000000000000000000000000000000000000000000000000000000000000
0000000000000000000000000000000000000000000000010010010101011010111011
1111111111111111111111111111111111111111111111111111111111111111111111
1111111111111000000000000000000000000000000000000000000000000000000000
0000000000000000000000000000000000000000000000000000000000000000000000
0000000000000000000000000000000000100101000101101111111111111111111111
1111111111111111111111111111111111111111111111111111111111100000000000
0000000000000000000000000000000000000000000000000000000000000000000000
0000000000000000000000000000000000000000000000000000000000000000000000
0000000010001001011111101010111111111111111111111111111111111111111111
1111111111111111111111111111111111000000000000000000000000000000000000
0000000000000000000000000000000000000000000000000000000000000000000000
0000000000000000000000000000000000000000000000000000010000000001000001
0110111111111111111111111111111111111111111111111111111111111111111111
1111111111000000000000000000000000000000000000000000000000000000000000
0000000000000000000000000000000000000000000000000000000000000000000000
0000000000000000000000000000000000100010000010101010101111111111111111
1111111111111111111111111111111111111111111111111111111101000000000000
0000000000000000000000000000000000000000000000000000000000000000000000
0000000000000000000000000000000000000000000000000000000000000000000000
0000000000000000001100010001010010011111111111111111111111111111111111
1111111111111111111111111111111100000000000000000000000000000000000000
0000000000000000000000000000000000000000000000000000000000000000000000
0000000000000000000000000000000000000000000000000000000000000000000000
0100100101010111111111111111111111111111111111111111111111111111111111
1111111000000000000000000000000000000000000000000000000000000000000000
0000000000000000000000000000000000000000000000000000000000000000000000
0000000000000000000000000000000000000000000100001100101010100110111111
1111111111111111111111111111111111111111111111111111100110000000000000
0000000000000000000000000000000000000000000000000000000000000000000000
0000000000000000000000000000000000000000000000000000000000000000000000
0000000000000001000000000100010101000101101110111111111111111111111111
1111111111111111111111111111010000000000000000000000000000000000000000
0000000000000000000000000000000000000000000000000000000000000000000000
0000000000000000000000000000000000000000000000000000000000000000000000
0010000000110100100101110111111111111111111111111111111111111111111111
1111000100000000000000000000000000000000000000000000000000000000000000
0000000000000000000000000000000000000000000000000000000000000000000000
0000000000000000000000000000000000000000000000000000001000001011011001
1111011111111111111111111111111111111111111111111111000000000000000000
0000000000000000000000000000000000000000000000000000000000000000000000
0000000000000000000000000000000000000000000000000000000000000000000000
0000000000000000000000000000000000010000100110000111111111111111111111
1111111111111111111111111100000000000000000000000000000000000000000000
0000000000000000000000000000000000000000000000000000000000000000000000
0000000000000000000000000000000000000000000000000000000000000000000000
0000000100000100000110111001010101111111111111111111111111111111111111
1101010000000000000000000000000000000000000000000000000000000000000000
0000000000000000000000000000000000000000000000000000000000000000000000
0000000000000000000000000000000000000000000000000000000000000000000000
0010100111101111111111111111111111111111111111101000000000000000000000
0000000000000000000000000000000000000000000000000000000000000000000000
0000000000000000000000000000000000000000000000000000000000000000000000
0000000000000000000000000000000000000010001000000100011001011111111111
1111111111111111111111100000100000000000000000000000000000000000000000
0000000000000000000000000000000000000000000000000000000000000000000000
0000000000000000000000000000000000000000000000000000000000000000000000
0000000000000000000000010011000101100101011111111111111111111111111110
1000000000000000000000000000000000000000000000000000000000000000000000
0000000000000000000000000000000000000000000000000000000000000000000000
0000000000000000000000000000000000000000000000000000000000000000000000
1000010010011001111111111111111111111111111010000000000000000000000000
0000000000000000000000000000000000000000000000000000000000000000000000
0000000000000000000000000000000000000000000000000000000000000000000000
0000000000000000000000000000000000000000000000000000100000011000000110
1111111111111111111101010000000000000000000000000000000000000000000000
0000000000000000000000000000000000000000000000000000000000000000000000
0000000000000000000000000000000000000000000000000000000000000000000000
0000000000000000000000000000000101000001101001011111111111111111100001
0000000000000000000000000000000000000000000000000000000000000000000000
0000000000000000000000000000000000000000000000000000000000000000000000
0000000000000000000000000000000000000000000000000000000000000000000000
0000000000001001000100100101011111111111011000000000000000000000000000
0000000000000000000000000000000000000000000000000000000000000000000000
0000000000000000000000000000000000000000000000000000000000000000000000
0000000000000000000000000000000000000000000000000000000000000010011011
1001011011111110010001000000000000000000000000000000000000000000000000
0000000000000000000000000000000000000000000000000000000000000000000000
0000000000000000000000000000000000000000000000000000000000000000000000
0000000000000000000000000000000000010000000000010010010101110100100000
0000000000000000000000000000000000000000000000000000000000000000000000
0000000000000000000000000000000000000000000000000000000000000000000000
0000000000000000000000000000000000000000000000000000000000000000000000
0000000000000000000000000100011001001010010000000000000000000000000000
0000000000000000000000000000000000000000000000000000000000000000000000
0000000000000000000000000000000000000000000000000000000000000000000000
0000000000000000000000000000000000000000000000000000000000000000010010
0011000010010100000000000000000000000000000000000000000000000000000000
0000000000000000000000000000000000000000000000000000000000000000000000
0000000000000000000000000000000000000000000000000000000000000000000000
0000000000000000000000000000000000000000000000000100000101000000000000
0000000000000000000000000000000000000000000000000000000000000000000000
0000000000000000000000000000000000000000000000000000000000000000000000
0000000000000000000000000000000000000000000000000000000000000000000000
0000000000000000000000000000100000001000000000000000000000000000000000
0000000000000000000000000000000000000000000000000000000000000000000000
0000000000000000000000000000000000000000000000000000000000000000000000
0000000000000000000000000000000000000000000000000000000000000000000000
0000000010000000000000000000000000000000000000000000000000000000000000
0000000000000000000000000000000000000000000000000000000000000000000000
0000000000000000000000000000000000000000000000000000000000000000000000
0000000000000000000000000000000000000000000000000000000000000000000000
0000000000000000000000000000000000000000000000000000000000000000000000
0000000000000000000000000000000000000000000000000000000000000000000000
0000000000000000000000000000000000000000000000000000000000000000000000
0000000000000000000000000000000000000000000000000000000000000000000000
0000000000000000000000000000000000000000000000000000000000000000000000
0000000000000000000000000000000000000000000000000000000000000000000000
0000000000000000000000000000000000000000000000000000000000000000000000
0000000000000000000000000000000000000000000000000000000000000000000000
0000000000000000000000000000000000000000000000000000000000000000000000
0000000000000000000000000000000000000000000000000000000000000000000000
0000000000000000000000000000000000000000000000000000000000000000000000
0000000000000000000000000000000000000000000000000000000000000000000000
0000000000000000000000000000000000000000000000000000000000000000000000
0000000000000000000000000000000000000000000000000000000000000000000000
0000000000000000000000000000000000000000000000000000000000000000000000
0000000000000000000000000000000000000000000000000000000000000000000000
0000000000000000000000000000000000000000000000000000000000000000000000
0000000000000000000000000000000000000000000000000000000000000000000000
0000000000000000000000000000000000000000000000000000000000000000000000
0000000000000000000000000000000000000000000000000000000000000000000000
0000000000000000000000000000000000000000000000000000000000000000000000
0000000000000000000000000000000000000000000000000000000000000000000000
0000000000000000000000000000000000000000000000000000000000000000000000
0000000000000000000000000000000000000000000000000000000000000000000000
0000000000000000000000000000000000000000000000000000000000000000000000
0000000000000000000000000000000000000000000000000000000000000000000000
0000000000000000000000000000000000000000000000000000000000000000000000
0000000000000000000000000000000000000000000000000000000000000000000000
0000000000000000000000000000000000000000000000000000000000000000000000
0000000000000000000000000000000000000000000000000000000000000000000000
0000000000000000000000000000000000000000000000000000000000000000000000
0000000000000000000000000000000000000000000000000000000000000000000000
0000000000000000000000000000000000000000000000000000000000000000000000
0000000000000000000000000000000000000000000000000000000000000000000000
0000000000000000000000000000000000000000000000000000000000000000000000
0000000000000000000000000000000000000000000000000000000000000000000000
0000000000000000000000000000000000000000000000000000000000000000000000
0000000000000000000000000000000000000000000000000000000000000000000000
0000000000000000000000000000000000000000000000000000000000000000000000
0000000000000000000000000000000000000000000000000000000000000000000000
0000000000000000000000000000000000000000000000000000000000000000000000
0000000000000000000000000000000000000000000000000000000000000000000000
0000000000000000000000000000000000000000000000000000000000000000000000
0000000000000000000000000000000000000000000000000000000000000000000000
0000000000000000000000000000000000000000000000000000000000000000000000
0000000000000000000000000000000000000000000000000000000000000000000000
0000000000000000000000000000000000000000000000000000000000000000000000
0000000000000000000000000000000000000000000000000000000000000000000000
0000000000000000000000000000000000000000000000000000000000000000000000
0000000000000000000000000000000000000000000000000000000000000000000000
0000000000000000000000000000000000000000000000000000000000000000000000
0000000000000000000000000000000000000000000000000000000000000000000000
0000000000000000000000000000000000000000000000000000000000000000000000
0000000000000000000000000000000000000000000000000000000000000000000000
0000000000000000000000000000000000000000000000000000000000000000000000
0000000000000000000000000000000000000000000000000000000000000000000000
0000000000000000000000000000000000000000000000000000000000000000000000
0000000000000000000000000000000000000000000000000000000000000000000000
0000000000000000000000000000000000000000000000000000000000000000000000
0000000000000000000000000000000000000000000000000000000000000000000000
0000000000000000000000000000000000000000000000000000000000000000000000
0000000000000000000000000000000000000000000000000000000000000000000000
0000000000000000000000000000000000000000000000000000000000000000000000
0000000000000000000000000000000000000000000000000000000000000000000000
0000000000000000000000000000000000000000000000000000000000000000000000
0000000000000000000000000000000000000000000000000000000000000000000000
0000000000000000000000000000000000000000000000000000000000000000000000
0000000000000000000000000000000000000000000000000000000000000000000000
0000000000000000000000000000000000000000000000000000000000000000000000
0000000000000000000000000000000000000000000000000000000000000000000000
0000000000000000000000000000000000000000000000000000000000000000000000
0000000000000000000000000000000000000000000000000000000000000000000000
0000000000000000000000000000000000000000000000000000000000000000000000
0000000000000000000000000000000000000000000000000000000000000000000000
0000000000000000000000000000000000000000000000000000000000000000000000
0000000000000000000000000000000000000000000000000000000000000000000000
0000000000000000000000000000000000000000000000000000000000000000000000
0000000000000000000000000000000000000000000000000000000000000000000000
0000000000000000000000000000000000000000000000000000000000000000000000
0000000000000000000000000000000000000000000000000000000000000000000000
0000000000000000000000000000000000000000000000000000000000000000000000
0000000000000000000000000000000000000000000000000000000000000000000000
0000000000000000000000000000000000000000000000000000000000000000000000
0000000000000000000000000000000000000000000000000000000000000000000000
0000000000000000000000000000000000000000000000000000000000000000000000
0000000000000000000000000000000000000000000000000000000000000000000000
0000000000000000000000000000000000000000000000000000000000000000000000
0000000000000000000000000000000000000000000000000000000000000000000000
0000000000000000000000000000000000000000000000000000000000000000000000
0000000000000000000000000000000000000000000000000000000000000000000000
0000000000000000000000000000000000000000000000000000000000000000000000
0000000000000000000000000000000000000000000000000000000000000000000000
0000000000000000000000000000000000000000000000000000000000000000000000
0000000000000000000000000000000000000000000000000000000000000000000000
0000000000000000000000000000000000000000000000000000000000000000000000
0000000000000000000000000000000000000000000000000000000000000000000000
0000000000000000000000000000000000000000000000000000000000000000000000
0000000000000000000000000000000000000000000000000000000000000000000000
0000000000000000000000000000000000000000000000000000000000000000000000
0000000000000000000000000000000000000000000000000000000000000000000000
0000000000000000000000000000000000000000000000000000000000000000000000
0000000000000000000000000000000000000000000000000000000000000000000000
0000000000000000000000000000000000000000000000000000000000000000000000
0000000000000000000000000000000000000000000000000000000000000000000000
0000000000000000000000000000000000000000000000000000000000000000000000
0000000000000000000000000000000000000000000000000000000000000000000000
0000000000000000000000000000000000000000000000000000000000000000000000
0000000000000000000000000000000000000000000000000000000000000000000000
0000000000000000000000000000000000000000000000000000000000000000000000
0000000000000000000000000000000000000000000000000000000000000000000000
0000000000000000000000000000000000000000000000000000000000000000000000
0000000000000000000000000000000000000000000000000000000000000000000000
0000000000000000000000000000000000000000000000000000000000000000000000
0000000000000000000000000000000000000000000000000000000000000000000000
0000000000000000000000000000000000000000000000000000000000000000000000
0000000000000000000000000000000000000000000000000000000000000000000000
0000000000000000000000000000000000000000000000000000000000000000000000
0000000000000000000000000000000000000000000000000000000000000000000000
0000000000000000000000000000000000000000000000000000000000000000000000
0000000000000000000000000000000000000000000000000000000000000000000000
0000000000000000000000000000000000000000000000000000000000000000000000
0000000000000000000000000000000000000000000000000000000000000000000000
0000000000000000000000000000000000000000000000000000000000000000000000
0000000000000000000000000000000000000000000000000000000000000000000000
0000000000000000000000000000000000000000000000000000000000000000000000
0000000000000000000000000000000000000000000000000000000000000000000000
0000000000000000000000000000000000000000000000000000000000000000000000
0000000000000000000000000000000000000000000000000000000000000000000000
0000000000000000000000000000000000000000000000000000000000000000000000
0000000000000000000000000000000000000000000000000000000000000000000000
0000000000000000000000000000000000000000000000000000000000000000000000
0000000000000000000000000000000000000000000000000000000000000000000000
000000000000